# xmcd
#
# Track frame offsets:
#	150
#	11814
#	35540
#	49522
#	68990
#	81910
#	93896
#	115427
#	126906
#	138329
#	157843
#	170051
#	180056
#
# Disc length: 2544 seconds
#
# Revision: 1
# Processed by: cddbd v1.4b41PL1 Copyright (c) Steve Scherf et al.
# Submitted via: audiograbber 1.80
#
DISCID=a409ee0d
DTITLE=Salty Dogz - Salty Dogz2000
DYEAR=1900
DGENRE=
TTITLE0=There 's another single in the jukebox
TTITLE1=I wanna be 
TTITLE2=You 're so fine
TTITLE3=The one that I want is you
TTITLE4=One woman man
TTITLE5=Killin Jive
TTITLE6=Birth of the Blue
TTITLE7=Manhattan Hoedown
TTITLE8=I'm Crazy
TTITLE9=Wild Young and Beautiful
TTITLE10=Lonesome train
TTITLE11=Rock Therapie
TTITLE12=The old Buck dance
EXTD=
EXTT0=
EXTT1=
EXTT2=
EXTT3=
EXTT4=
EXTT5=
EXTT6=
EXTT7=
EXTT8=
EXTT9=
EXTT10=
EXTT11=
EXTT12=
PLAYORDER=
